# xmcd CD database file
#
# Track frame offsets:
#	150
#	29509
#	61310
#	85687
#	125780
#	167400
#	201818
#	224965
#	262891
#
# Disc length: 4002 seconds
#
# Revision: 0
# Processed by: cddbd v1.5PL3 Copyright (c) Steve Scherf et al.
# Submitted via: CDex 1.51
#
DISCID=820fa009
DTITLE=Ryan Kisor Quartet - Point Of Arrival
DYEAR=1998
DGENRE=Jazz
TTITLE0=Point Of Arrival
TTITLE1=Smoke Signal
TTITLE2=Better Late Than Never
TTITLE3=For All We Know
TTITLE4=Jessica's Theme
TTITLE5=The Lonely Hour
TTITLE6=The Best Thing For You Is Me
TTITLE7=Sir Lancelot
TTITLE8=The End Of A Lover Affair
EXTD=YEAR: 1998
EXTT0=
EXTT1=
EXTT2=
EXTT3=
EXTT4=
EXTT5=
EXTT6=
EXTT7=
EXTT8=
PLAYORDER=
